<?xml version="1.0" standalone="no"?>
<!DOCTYPE svg PUBLIC "-//W3C//DTD SVG 20010904//EN"
 "http://www.w3.org/TR/2001/REC-SVG-20010904/DTD/svg10.dtd">
<svg version="1.0" xmlns="http://www.w3.org/2000/svg"
 width="260.000000pt" height="260.000000pt" viewBox="0 0 260.000000 260.000000"
 preserveAspectRatio="xMidYMid meet">
<metadata>
Created by potrace 1.14, written by Peter Selinger 2001-2017
</metadata>
<g transform="translate(0.000000,260.000000) scale(0.100000,-0.100000)"
fill="#000000" stroke="none">
<path d="M766 1848 c-110 -293 -214 -571 -232 -618 -106 -275 -374 -1004 -372
-1010 2 -4 199 26 438 66 239 40 451 76 470 79 19 3 116 19 215 36 173 29 202
34 263 44 15 2 95 15 177 29 83 14 167 28 189 32 21 3 46 7 55 9 9 1 117 19
241 40 124 21 227 39 229 41 2 2 -7 16 -20 32 -53 65 -459 558 -628 762 -16
19 -74 90 -129 156 -54 67 -123 151 -153 186 -30 35 -70 84 -89 108 -36 44
-184 224 -223 270 -12 14 -51 62 -86 105 -35 44 -69 85 -76 90 -6 6 -21 25
-34 43 -12 17 -25 32 -29 32 -4 0 -97 -240 -206 -532z"/>
</g>
</svg>
